<?xml version="1.0" encoding="iso-8859-1"?>
<!-- Generator: Adobe Illustrator 19.0.0, SVG Export Plug-In . SVG Version: 6.00 Build 0)  -->
<svg version="1.1" id="Layer_1" xmlns="http://www.w3.org/2000/svg" xmlns:xlink="http://www.w3.org/1999/xlink" x="0px" y="0px"
	 viewBox="0 0 496.159 496.159" style="enable-background:new 0 0 496.159 496.159;" xml:space="preserve">
<path style="fill:#A77F64;" d="M248.083,0.003C111.071,0.003,0,111.063,0,248.085c0,137.001,111.07,248.07,248.083,248.07
	c137.006,0,248.076-111.069,248.076-248.07C496.159,111.062,385.089,0.003,248.083,0.003z"/>
<g>
	<polygon style="fill:#E2BB9A;" points="286.327,351.206 209.83,351.206 196.463,430.701 298.694,430.701 	"/>
	<path style="fill:#E2BB9A;" d="M393.483,408.079c0,0-71.682-16.355-144.531-16.355c-72.85,0-143.279,16.355-143.279,16.355
		c-12.827,0-24.078,7.996-30.449,17.917c44.646,43.381,105.552,70.118,172.712,70.157c0.265,0,0.528-0.005,0.793-0.006
		c67.864-0.173,129.318-27.598,174.008-71.908C416.209,415.148,405.544,408.079,393.483,408.079z"/>
	<ellipse style="fill:#E2BB9A;" cx="341.38" cy="251.459" rx="9" ry="21.749"/>
	<ellipse style="fill:#E2BB9A;" cx="154.39" cy="251.459" rx="9" ry="21.749"/>
</g>
<path style="fill:#E9C29C;" d="M248.322,108.588c-55.328,0-100.183,27.276-100.183,100.491c0,32.833,8.072,88.486,23.934,110.921
	c11.368,16.079,47.572,53.795,76.249,53.795s64.329-34.383,76.839-54.716c14.292-23.229,23.345-77.6,23.345-110
	C348.506,135.864,303.657,108.588,248.322,108.588z"/>
<g>
	<path style="fill:#917751;" d="M230.694,211.155c0,0-12.757-0.781-17.378-1.057s-12.289,0.058-18.622,1.724s-19,12.333-19,12.333
		s14.333-6.583,20-7.25s11.667-0.667,17.667,0s20,3.917,20,3.917L230.694,211.155z"/>
	<path style="fill:#917751;" d="M299.028,211.822c-6.333-1.667-14-2-18.622-1.724s-17.378,1.057-17.378,1.057l-2.667,9.667
		c0,0,14-3.25,20-3.917s12-0.667,17.667,0s20,7.25,20,7.25S305.361,213.489,299.028,211.822z"/>
</g>
<path style="fill:#C9936B;" d="M248.322,108.588c-55.328,0-100.183,27.276-100.183,100.491c0,32.833,8.072,88.486,23.934,110.921
	c11.368,16.079,47.572,53.795,76.249,53.795s64.329-34.383,76.839-54.716c14.292-23.229,23.345-77.6,23.345-110
	C348.506,135.864,303.657,108.588,248.322,108.588z M169.542,224.462c0-8.836,26.495-20.667,40.878-20.667
	c36.122,0,31.143,26.333,30.125,32.333c-1.46,8.603-15.74,22-30.125,22C196.037,258.129,169.542,233.299,169.542,224.462z
	 M248.368,343.391c-18.895,0-34.212-8.592-34.212-19.193c0-6.946,6.578-11.297,16.43-14.667c5.182-1.772,11.27-0.12,17.782-0.12
	c6.002,0,11.644-1.805,16.548-0.282c10.532,3.272,17.664,7.836,17.664,15.068C282.58,334.798,267.262,343.391,248.368,343.391z
	 M284.535,258.129c-14.384,0-28.665-13.397-30.125-22c-1.018-6-5.997-32.333,30.125-32.333c14.384,0,40.878,11.83,40.878,20.667
	C325.413,233.299,298.919,258.129,284.535,258.129z"/>
<path style="fill:#666666;" d="M211.643,225.871c-12.251-0.847-22.937,9.384-22.937,9.384c-0.174,2.52,9.176,11.604,21.427,12.452
	c12.251,0.847,22.937-9.384,22.937-9.384S223.894,226.718,211.643,225.871z"/>
<path style="fill:#F7F1ED;" d="M211.434,228.892c-11.59-0.802-21.638,7.955-21.638,7.955c-0.15,2.172,8.747,10.057,20.337,10.859
	c11.59,0.801,21.638-7.956,21.638-7.956S223.025,229.693,211.434,228.892z"/>
<circle style="fill:#5B5B5B;" cx="210.77" cy="238.539" r="7.782"/>
<circle style="fill:#333333;" cx="210.77" cy="238.539" r="5.507"/>
<path style="fill:#666666;" d="M283.675,225.871c-12.251,0.848-21.427,12.452-21.427,12.452s10.686,10.23,22.937,9.384
	c12.251-0.848,21.601-9.932,21.427-12.452C306.612,235.254,295.926,225.023,283.675,225.871z"/>
<path style="fill:#F7F1ED;" d="M283.884,228.892c-11.591,0.801-20.337,10.858-20.337,10.858s10.048,8.757,21.639,7.956
	c11.591-0.802,20.487-8.687,20.337-10.859C305.522,236.847,295.475,228.09,283.884,228.892z"/>
<circle style="fill:#5B5B5B;" cx="284.54" cy="238.179" r="7.782"/>
<circle style="fill:#333333;" cx="284.53" cy="238.179" r="5.506"/>
<path style="fill:#E8CEA7;" d="M156.08,116.079c-30.497,47.701-18.616,110.635-11,132.5c2.124,6.096,6,2,6,2s52.796-36.758,98-83.75
	V55.794C249.08,55.794,185.753,69.667,156.08,116.079z"/>
<path style="fill:#E2C796;" d="M336.08,107.079c-35.652-41.994-70.029-51.573-89.753-59.107
	c-13.805-5.273-13.499,30.249-11.999,54.248c1.598,25.571,14.752,64.609,14.752,64.609c38.5,51.25,101.5,77.25,101.5,77.25
	S371.733,149.073,336.08,107.079z"/>
<polygon style="fill:#FFFFFF;" points="248.437,320.336 221.043,321.389 248.058,327.946 275.831,321.389 "/>
<path style="fill:#CE8C78;" d="M248.437,325.283c-9.131,0-28.442-3.704-28.442-3.704s9.8,16.64,28.443,16.64
	s28.055-16.64,28.055-16.64S257.569,325.283,248.437,325.283z"/>
<path style="fill:#DB9A83;" d="M262.134,314.439c-6.85,0-13.696,1.712-13.696,1.712s-6.849-1.712-13.697-1.712
	c-6.849,0-14.746,7.14-14.746,7.14s17.789,1.111,28.443,1.111s28.055-1.111,28.055-1.111S268.983,314.439,262.134,314.439z"/>
<path style="fill:#E8B1A0;" d="M224.237,320.736l17.275-3.394C230.078,312.369,224.237,320.736,224.237,320.736z"/>
<g>
	<path style="fill:#B5805D;" d="M259.91,280.313l-5.505-31.932l3.303,33.033c0,0,9.634,6.882,1.927,14.314
		C259.635,295.728,273.673,292.975,259.91,280.313z"/>
	<path style="fill:#B5805D;" d="M236.503,280.313c-13.763,12.662,0.275,15.415,0.275,15.415c-7.708-7.432,1.927-14.314,1.927-14.314
		l3.304-33.033L236.503,280.313z"/>
</g>
<g>
</g>
<g>
</g>
<g>
</g>
<g>
</g>
<g>
</g>
<g>
</g>
<g>
</g>
<g>
</g>
<g>
</g>
<g>
</g>
<g>
</g>
<g>
</g>
<g>
</g>
<g>
</g>
<g>
</g>
</svg>
