<?xml version="1.0" encoding="iso-8859-1"?>
<!-- Generator: Adobe Illustrator 19.0.0, SVG Export Plug-In . SVG Version: 6.00 Build 0)  -->
<svg version="1.1" id="Layer_1" xmlns="http://www.w3.org/2000/svg" xmlns:xlink="http://www.w3.org/1999/xlink" x="0px" y="0px"
	 viewBox="0 0 496.158 496.158" style="enable-background:new 0 0 496.158 496.158;" xml:space="preserve">
<path style="fill:#A076AB;" d="M248.082,0.003C111.07,0.003,0,111.063,0,248.085c0,137.001,111.07,248.07,248.082,248.07
	c137.006,0,248.076-111.069,248.076-248.07C496.158,111.062,385.088,0.003,248.082,0.003z"/>
<g>
	<path style="fill:#DBB595;" d="M488.195,185.517l-0.613-0.365l-19.09,33.987l-19.881,59.414l-7.404,32.735
		c0,0,17.514,10.833,39.483,23.179c9.995-26.902,15.468-56.002,15.468-86.383C496.158,226.471,493.389,205.505,488.195,185.517z"/>
	<path style="fill:#DBB595;" d="M462.853,123.856l-80.584-44.061c-9.924-5.503-21.98-2.793-26.92,6.093
		c-4.93,8.873-0.881,20.545,9.053,26.063l123.18,73.2l0.347-0.619C482.245,163.023,473.751,142.658,462.853,123.856z"/>
	<path style="fill:#DBB595;" d="M487.929,184.533l-0.347,0.619l0.613,0.365C488.109,185.188,488.016,184.862,487.929,184.533z"/>
	<path style="fill:#DBB595;" d="M489.449,190.597L333.115,110.14c-9.994-5.363-22.168-2.18-27.156,7.131
		c-4.984,9.291-0.906,21.187,9.097,26.553l161.962,91.482c5.992,3.208,12.9,3.116,18.845,0.726
		C495.117,220.466,492.933,205.281,489.449,190.597z"/>
	<path style="fill:#DBB595;" d="M474.836,237.158l-137.498-69.893c-11.096-5.779-24.289-2.399-29.453,7.527
		c-5.172,9.93-0.355,22.657,10.742,28.438l135.555,73.609c11.117,5.773,25.405-0.114,30.574-10.045
		C489.925,256.873,485.955,242.921,474.836,237.158z"/>
	<path style="fill:#DBB595;" d="M456.655,280.267l-80.954-35.994c-9.705-4.873-20.895-2.199-25.004,5.957
		c-4.097,8.168,0.445,18.742,10.15,23.617l78.803,36.446c11.186,5.624,22.76,8.663,27.484-0.743
		C471.857,300.14,467.823,285.881,456.655,280.267z"/>
</g>
<path style="fill:#E8C7AF;" d="M371.33,246.996c-0.348-0.156-2.666-0.929-3.035-1.072c-7.612-2.978-13.448,0.062-16.086,5.829
	c-2.565,5.605-1.508,11.684,5.506,15.659c0.545,0.314,3.055,1.215,3.602,1.465c7.574,3.467,12-0.432,14.768-6.474
	C378.848,256.359,378.904,250.46,371.33,246.996z"/>
<g>
	<path style="fill:#DD8F8C;" d="M370.879,247.059c-0.331-0.157-5.526-2.169-5.877-2.313c-7.274-2.971-16.061-3.66-19.473,3.502
		c-3.412,7.16,2.301,13.076,8.983,17.004c0.519,0.306,5.896,2.444,6.416,2.695c7.23,3.444,11.542-0.238,14.292-6.006
		C377.966,256.175,378.107,250.502,370.879,247.059z"/>
	<path style="fill:#DD8F8C;" d="M370.918,247.005c-0.338-0.16-2.408-1.157-2.768-1.3c-7.427-3.036-13.202-0.14-15.88,5.483
		c-2.603,5.461-1.655,11.443,5.169,15.455c0.53,0.313,2.785,1.436,3.317,1.691c7.384,3.516,11.788-0.244,14.595-6.135
		C378.154,256.312,378.301,250.521,370.918,247.005z"/>
</g>
<path style="fill:#E8C7AF;" d="M333.195,171.647c-0.418-0.204-3.213-1.229-3.656-1.417c-9.156-3.904-16.373-0.416-19.795,6.506
	c-3.329,6.729-2.264,14.166,6.129,19.264c0.65,0.4,3.674,1.592,4.328,1.916c9.094,4.497,14.625-0.086,18.213-7.34
	C342.003,183.322,342.288,176.144,333.195,171.647z"/>
<g>
	<path style="fill:#DD8F8C;" d="M332.642,171.708c-0.396-0.205-6.646-2.846-7.068-3.031c-8.746-3.883-19.417-5.047-23.833,3.549
		c-4.417,8.59,2.321,15.998,10.312,21.025c0.619,0.393,7.086,3.193,7.712,3.518c8.675,4.457,14.06,0.133,17.618-6.787
		C340.935,183.064,341.317,176.163,332.642,171.708z"/>
	<path style="fill:#DD8F8C;" d="M332.588,171.557c-0.41-0.213-2.926-1.517-3.364-1.708c-9.046-4.021-16.274-0.66-19.786,6.172
		c-3.412,6.639-2.465,14.049,5.801,19.25c0.641,0.404,3.379,1.875,4.026,2.211c8.974,4.609,14.544,0.135,18.226-7.023
		C341.167,183.301,341.561,176.165,332.588,171.557z"/>
</g>
<path style="fill:#E8C7AF;" d="M332.34,114.559c-0.402-0.231-3.123-1.44-3.551-1.659c-8.879-4.502-16.312-1.504-20.186,5.175
	c-3.77,6.493-3.201,13.985,4.833,19.632c0.622,0.441,3.562,1.83,4.192,2.197c8.774,5.092,14.598,0.89,18.66-6.107
	C340.352,126.792,341.115,119.649,332.34,114.559z"/>
<g>
	<path style="fill:#DD8F8C;" d="M331.785,114.583c-0.382-0.232-6.443-3.279-6.852-3.496c-8.469-4.455-19.037-6.324-24.016,1.958
		c-4.978,8.275,1.252,16.117,8.891,21.663c0.592,0.434,6.856,3.66,7.461,4.023c8.358,5.023,14.02,1.068,18.029-5.602
		C339.305,126.464,340.144,119.605,331.785,114.583z"/>
	<path style="fill:#DD8F8C;" d="M331.959,114.752c-0.389-0.236-2.77-1.678-3.186-1.896c-8.607-4.53-15.912-1.709-19.801,4.76
		c-3.779,6.285-3.336,13.61,4.428,19.25c0.603,0.438,3.189,2.058,3.803,2.429c8.496,5.106,14.25,1.085,18.326-5.69
		C339.601,126.826,340.455,119.857,331.959,114.752z"/>
</g>
<path style="fill:#E8C7AF;" d="M380.637,83.187c-0.402-0.23-3.123-1.441-3.551-1.66c-8.878-4.502-16.311-1.505-20.186,5.177
	c-3.77,6.493-3.201,13.983,4.834,19.629c0.623,0.444,3.56,1.833,4.191,2.199c8.775,5.091,14.598,0.89,18.662-6.111
	C388.65,95.421,389.412,88.276,380.637,83.187z"/>
<g>
	<path style="fill:#DD8F8C;" d="M380.084,83.21c-0.383-0.231-6.444-3.279-6.854-3.495c-8.467-4.456-19.037-6.327-24.014,1.955
		c-4.979,8.278,1.25,16.119,8.89,21.665c0.591,0.434,6.855,3.659,7.46,4.023c8.359,5.025,14.02,1.068,18.031-5.601
		C387.601,95.091,388.442,88.234,380.084,83.21z"/>
	<path style="fill:#DD8F8C;" d="M380.262,83.378c-0.389-0.236-2.77-1.68-3.186-1.896c-8.609-4.533-15.916-1.711-19.805,4.76
		c-3.781,6.287-3.336,13.613,4.428,19.252c0.604,0.439,3.191,2.061,3.805,2.431c8.498,5.107,14.253,1.087,18.329-5.692
		C387.906,95.454,388.759,88.484,380.262,83.378z"/>
	<path style="fill:#DD8F8C;" d="M170.689,407.013c-0.066,0.237-0.105,0.478-0.105,0.722
		C170.584,408.16,170.621,407.89,170.689,407.013z M325.462,406.97c0.073,0.913,0.112,1.2,0.112,0.765
		C325.574,407.476,325.536,407.221,325.462,406.97z M248.079,240.681c-27.992,0-68.095,3.841-68.095,3.841
		s-8.26,149.363-9.295,162.491c4.368-15.598,150.148-15.613,154.772-0.043c-1.079-13.447-9.566-163.43-9.566-163.43
		S275.903,240.681,248.079,240.681z"/>
</g>
<path style="fill:#E29898;" d="M248.079,219.72c-42.098,0-68.884,11.943-68.884,26.678c0,14.732,26.786,26.678,68.884,26.678
	c42.097,0,68.884-11.945,68.884-26.678C316.963,231.663,290.176,219.72,248.079,219.72z"/>
<path style="fill:#444444;" d="M248.079,228.93c-21.052,0-38.113,6.967-38.113,15.562c0,8.596,17.062,15.563,38.113,15.563
	c21.055,0,38.115-6.967,38.115-15.563C286.194,235.897,269.134,228.93,248.079,228.93z"/>
<path style="fill:#DD8F8C;" d="M248.079,377.722c-47.357,0-77.495,13.438-77.495,30.013s30.138,30.012,77.495,30.012
	c47.359,0,77.495-13.437,77.495-30.012S295.438,377.722,248.079,377.722z"/>
<polygon style="fill:#444444;" points="278.574,75.633 217.59,75.633 209.966,244.492 286.194,244.492 "/>
<path style="fill:#4F4E4E;" d="M248.079,63.183c-16.839,0-30.489,5.574-30.489,12.449c0,6.876,13.65,12.45,30.489,12.45
	c16.843,0,30.495-5.574,30.495-12.45C278.574,68.757,264.922,63.183,248.079,63.183z"/>
<g>
	<ellipse style="fill:#D10566;" cx="245.479" cy="336.149" rx="20.346" ry="32.756"/>
	<path style="fill:#D10566;" d="M275.593,360.04c-10.763-8.853-24.055-10.475-29.692-3.623c-5.648,6.855-1.496,19.59,9.259,28.444
		c10.758,8.854,24.056,10.477,29.69,3.623C290.498,381.63,286.348,368.896,275.593,360.04z"/>
	
		<ellipse transform="matrix(-0.6355 -0.7721 0.7721 -0.6355 82.3099 783.7944)" style="fill:#D10566;" cx="226.165" cy="372.468" rx="16.07" ry="25.23"/>
</g>
<ellipse style="fill:#CE0658;" cx="245.479" cy="355.009" rx="11.169" ry="17.975"/>
<ellipse style="fill:#E20E64;" cx="245.479" cy="356.999" rx="6.7" ry="10.784"/>
<g>
	<path style="fill:#DB1675;" d="M298.037,350.07c-0.193-3.093-1.01-6.592-2.59-8.614c-3.113-3.975-11.689-14.07-15.735-15.437
		c-4.224-1.423-14.89-3.721-19.357,4.963c-4.467,8.686-9.057,15.633-15.51,19.107c0,0,0.235,0.013,0.655,0.034
		c-0.42,0.021-0.655,0.032-0.655,0.032c6.453,3.473,11.043,10.421,15.51,19.106c4.468,8.687,14.89,6.452,19.357,4.965
		c4.464-1.49,12.622-11.462,15.735-15.437c1.58-2.022,2.396-5.524,2.59-8.615c0-0.018-0.012-0.036-0.012-0.052
		C298.025,350.104,298.037,350.088,298.037,350.07z"/>
	<path style="fill:#DB1675;" d="M245.924,350.117c-6.447-3.473-11.038-10.421-15.506-19.105c-4.468-8.685-14.89-6.454-19.359-4.964
		c-4.467,1.488-12.623,11.461-15.735,15.435c-1.581,2.023-2.399,5.522-2.593,8.616c0,0.019,0.014,0.034,0.017,0.053
		c-0.003,0.017-0.017,0.034-0.017,0.053c0.193,3.091,1.012,6.592,2.593,8.614c3.112,3.974,11.69,14.068,15.735,15.435
		c4.22,1.426,14.892,3.722,19.359-4.962c4.468-8.684,9.059-15.633,15.506-19.106c0,0-0.231-0.011-0.656-0.033
		C245.692,350.129,245.924,350.117,245.924,350.117z"/>
</g>
<path style="fill:#F9EDF3;" d="M245.463,346.183c-2.602,0-4.717,2.111-4.717,4.714c0,2.605,2.115,4.715,4.717,4.715
	c2.605,0,4.715-2.11,4.715-4.715C250.178,348.295,248.068,346.183,245.463,346.183z"/>
<g>
</g>
<g>
</g>
<g>
</g>
<g>
</g>
<g>
</g>
<g>
</g>
<g>
</g>
<g>
</g>
<g>
</g>
<g>
</g>
<g>
</g>
<g>
</g>
<g>
</g>
<g>
</g>
<g>
</g>
</svg>
